PathFileType	4	(X/Y/Z)	./resultDataOpenSim/trcMotMarkerGrf/sub10/qtm-03-03.trc
DataRate	CameraRate	NumFrames	NumMarkers	Units	OrigDataRate	OrigDataStartFrame	OrigNumFrames
250.000000	250.000000	10	24	m	250.000000	67	528
Frame#	Time	L.Toe.Tip			R.Toe.Tip			L.Ankle.Lat			R.Ankle.Lat			L.Ankle.Med			R.Ankle.Med			L.Heel			R.Heel			L.Knee.Lat			R.Knee.Lat			L.Knee.Med			R.Knee.Med			L.Thigh.Upper			R.Thigh.Upper			L.ASIS			R.ASIS			V.Sacral			L.Acromium			R.Acromium			C7			L.Elbow			R.Elbow			L.Wrist.Lat			R.Wrist.Lat
		X1	Y1	Z1	X2	Y2	Z2	X3	Y3	Z3	X4	Y4	Z4	X5	Y5	Z5	X6	Y6	Z6	X7	Y7	Z7	X8	Y8	Z8	X9	Y9	Z9	X10	Y10	Z10	X11	Y11	Z11	X12	Y12	Z12	X13	Y13	Z13	X14	Y14	Z14	X15	Y15	Z15	X16	Y16	Z16	X17	Y17	Z17	X18	Y18	Z18	X19	Y19	Z19	X20	Y20	Z20	X21	Y21	Z21	X22	Y22	Z22	X23	Y23	Z23	X24	Y24	Z24

67	0.264	-1.4001121	0.072802423	-0.16187352	-0.72520515	0.038607607	-0.024816012	-1.3757049	0.20825373	-0.20419058	-0.86147645	0.052495559	0.019379209	-1.3511504	0.20517084	-0.12488474	-0.84962222	0.079932287	-0.065832852	-1.4076765	0.2636803	-0.15765563	-0.91780696	0.028564726	-0.024669041	-1.0595124	0.41090661	-0.2286005	-0.81470598	0.446496	0.055600254	-1.0391953	0.36807552	-0.11580861	-0.81796665	0.45896058	-0.072562851	-0.99661359	0.78463544	-0.23910692	-0.92070758	0.84606345	0.13732627	-0.92089028	0.89209157	-0.18585069	-0.87414442	0.92514985	0.046449274	-1.0964919	0.93163222	-0.032876745	-0.94465869	1.3880846	-0.20742788	-0.97032123	1.3809478	0.11582967	-1.044916	1.4108566	-0.054513723	-0.96553725	1.0376812	-0.25720241	-1.0882177	1.0569114	0.13551648	-0.73699595	0.94077725	-0.28754573	-1.0468958	0.83199072	0.2131038
68	0.268	-1.3878275	0.075245018	-0.16117429	-0.72511315	0.038545696	-0.024859012	-1.3647531	0.21055346	-0.20353739	-0.86142283	0.052478634	0.019480126	-1.3406494	0.20736967	-0.12402728	-0.84935244	0.079973645	-0.065800023	-1.397247	0.26603572	-0.15711599	-0.917834	0.028593273	-0.024648668	-1.0472634	0.41103972	-0.22844834	-0.81253622	0.44638992	0.055959864	-1.0272885	0.3686597	-0.11542595	-0.81583776	0.45868952	-0.072221776	-0.99017558	0.78515879	-0.23859528	-0.91613813	0.84648032	0.13752897	-0.91548092	0.89346606	-0.18596179	-0.86895217	0.92573261	0.046801699	-1.0912376	0.93225437	-0.032696076	-0.9394679	1.3890703	-0.20714617	-0.96446412	1.381848	0.11601417	-1.0396964	1.4119011	-0.053931489	-0.96082685	1.03894	-0.25741222	-1.0814726	1.0571972	0.13640247	-0.73318456	0.93994191	-0.28774386	-1.0381515	0.83239272	0.21359212
69	0.272	-1.3752778	0.077406775	-0.16020799	-0.72503734	0.038498597	-0.024886049	-1.3536705	0.2127251	-0.20283073	-0.86136806	0.052461153	0.019585512	-1.3303452	0.20944164	-0.12301942	-0.84910946	0.080017925	-0.065747407	-1.3868657	0.26803666	-0.15595842	-0.91786356	0.028626144	-0.024626308	-1.0349495	0.41138479	-0.2282386	-0.81072308	0.4462224	0.05643046	-1.0152525	0.369367	-0.11501432	-0.81373447	0.45845932	-0.071862568	-0.98384152	0.7858447	-0.23810776	-0.91178573	0.84686661	0.13772034	-0.91016943	0.89496923	-0.18611376	-0.8637384	0.92638596	0.047255365	-1.0860188	0.9329409	-0.032583826	-0.93434686	1.3901084	-0.206876	-0.95871895	1.3828161	0.11620618	-1.0345272	1.4129498	-0.053392498	-0.95619581	1.0402435	-0.25769601	-1.074722	1.0574785	0.13725751	-0.72953017	0.93910942	-0.28794554	-1.0293756	0.83289831	0.21408186
70	0.276	-1.3624506	0.079319421	-0.15914245	-0.72498277	0.038468366	-0.024886234	-1.3423432	0.21473216	-0.20210031	-0.86137879	0.052449324	0.019663827	-1.3194143	0.21147805	-0.1221249	-0.8489201	0.080061215	-0.065673493	-1.3762333	0.26972775	-0.15481565	-0.91789496	0.028660669	-0.024597136	-1.0226067	0.41191162	-0.22798031	-0.8091908	0.44601173	0.05706265	-1.0029034	0.37021486	-0.11458999	-0.81162915	0.45827451	-0.071446464	-0.97762529	0.7866954	-0.23762088	-0.90760179	0.84724287	0.13791386	-0.90494633	0.89658035	-0.18628398	-0.85858134	0.92711382	0.047800292	-1.0808636	0.93370431	-0.032603194	-0.92928626	1.3911976	-0.20661435	-0.9530791	1.3838124	0.11643406	-1.0294097	1.4140082	-0.052897739	-0.95164438	1.0415902	-0.25804202	-1.0679537	1.0577692	0.13811335	-0.72592712	0.93829927	-0.2881096	-1.020667	0.8334958	0.21454233
71	0.28	-1.3492063	0.081043205	-0.15816019	-0.72495847	0.038454294	-0.024852931	-1.3307316	0.21653651	-0.20133262	-0.86157041	0.052456065	0.019666288	-1.3071257	0.21354842	-0.12157871	-0.84882259	0.080100032	-0.065579477	-1.3653009	0.27115208	-0.15403175	-0.91792646	0.028694611	-0.02455855	-1.0102894	0.41258909	-0.22769975	-0.80767577	0.44580755	0.057862833	-0.99013088	0.37122094	-0.11417984	-0.80956153	0.45813905	-0.070960344	-0.97153298	0.7877041	-0.23712778	-0.90352137	0.84764666	0.13813753	-0.89975456	0.89827719	-0.18644005	-0.85351199	0.92791034	0.048432872	-1.0758178	0.9345564	-0.032867332	-0.92427771	1.3923328	-0.20635216	-0.94752902	1.384828	0.1166973	-1.024339	1.4150789	-0.052441072	-0.94716336	1.0429748	-0.25842062	-1.0611687	1.0580995	0.13900995	-0.72228231	0.93753567	-0.28820922	-1.0120429	0.83417214	0.21499223
72	0.284	-1.335504	0.082614604	-0.15730444	-0.72497472	0.038453838	-0.024788598	-1.3188627	0.21812441	-0.20052276	-0.86199856	0.052486029	0.019571564	-1.2937892	0.21560549	-0.12129325	-0.84885038	0.080132267	-0.065467047	-1.3542484	0.27235791	-0.1534688	-0.91795709	0.02872668	-0.024513726	-0.99803905	0.41338544	-0.2274025	-0.80589703	0.44564746	0.05873664	-0.97705855	0.37239398	-0.11382826	-0.80764881	0.4580504	-0.07045558	-0.96555823	0.78886477	-0.23663852	-0.89950416	0.84810324	0.13841515	-0.89450084	0.90004768	-0.18653287	-0.84857476	0.92877335	0.049137422	-1.070897	0.9354925	-0.033424083	-0.91931922	1.3935118	-0.20607844	-0.942052	1.385881	0.11697133	-1.0193071	1.4161531	-0.052014257	-0.94273322	1.0443847	-0.25878024	-1.0543983	1.0584906	0.13992951	-0.71863692	0.93682219	-0.28826975	-1.0034741	0.83491909	0.21548397
73	0.288	-1.3214273	0.084042937	-0.15652235	-0.72503404	0.038465659	-0.024697435	-1.3067964	0.21952468	-0.19968871	-0.86253908	0.052522024	0.019435323	-1.2804391	0.21754143	-0.12095645	-0.84898546	0.08016136	-0.065338322	-1.343259	0.27337628	-0.15280307	-0.91798824	0.02875683	-0.024469915	-0.98585918	0.41427748	-0.22706562	-0.80376814	0.44553467	0.059525402	-0.96390438	0.37374452	-0.11358616	-0.8059894	0.45799475	-0.070014246	-0.95968746	0.79016568	-0.23616412	-0.89551891	0.84861087	0.13876615	-0.88913904	0.90187788	-0.18653597	-0.84386986	0.92970785	0.049872974	-1.0660284	0.93648941	-0.03412356	-0.91440985	1.394736	-0.20579599	-0.93663231	1.3869905	0.11723299	-1.0143037	1.4172208	-0.051614221	-0.93833821	1.0458104	-0.25907487	-1.047753	1.0589486	0.14070115	-0.71517162	0.93613464	-0.2883625	-0.99493164	0.83573686	0.21604516
74	0.292	-1.307093	0.085317389	-0.15575812	-0.7251278	0.038488898	-0.024584027	-1.2945896	0.2207829	-0.19884802	-0.86297712	0.052539509	0.019349798	-1.2676274	0.21930539	-0.12039666	-0.84914538	0.080197948	-0.065196751	-1.3323309	0.27419355	-0.15190129	-0.91802202	0.028786423	-0.024432563	-0.97372597	0.41526141	-0.22667661	-0.80157439	0.44544082	0.060101597	-0.95088694	0.37525734	-0.11340743	-0.8045727	0.45795023	-0.069658903	-0.95391039	0.79157829	-0.23571904	-0.89150688	0.84916787	0.1392186	-0.88375334	0.90371897	-0.18650577	-0.83946544	0.93071671	0.050603892	-1.0610861	0.93752077	-0.034694914	-0.90954713	1.3960056	-0.2055197	-0.93126863	1.3881625	0.11747971	-1.0093193	1.4182893	-0.051245001	-0.93398743	1.047258	-0.25931435	-1.0414427	1.0594903	0.14099427	-0.71205654	0.93544889	-0.28854863	-0.98634936	0.83663605	0.21666743
75	0.296	-1.2925638	0.086413117	-0.15499684	-0.72524617	0.038519935	-0.024457481	-1.2822949	0.22191714	-0.19798713	-0.86322248	0.052531741	0.019349684	-1.255164	0.22089264	-0.11966614	-0.84925754	0.080251292	-0.065045701	-1.3213348	0.27477057	-0.15083089	-0.91805793	0.028816927	-0.024403545	-0.96161587	0.41634588	-0.22623824	-0.79982905	0.44532267	0.060416878	-0.93840269	0.37684309	-0.11306536	-0.80326015	0.45790113	-0.069321924	-0.94822712	0.79306232	-0.23533502	-0.88740087	0.8497844	0.13979702	-0.8784959	0.90549867	-0.18654273	-0.83525632	0.93179506	0.05135698	-1.0559983	0.93856802	-0.034968513	-0.90472931	1.3973127	-0.20525799	-0.92598133	1.38939	0.11773009	-1.0043504	1.4193827	-0.050911851	-0.92971666	1.0487411	-0.25956418	-1.035616	1.0601457	0.14062214	-0.70927378	0.93476846	-0.28881857	-0.97762875	0.83762976	0.21733818
76	0.3	-1.2778043	0.087315143	-0.15429143	-0.72538148	0.038556656	-0.024319544	-1.2699758	0.22291194	-0.19706074	-0.86334003	0.052509071	0.019401012	-1.2426994	0.22229344	-0.1188767	-0.84931825	0.080322235	-0.064885223	-1.3101431	0.27508609	-0.14971917	-0.91809303	0.028848804	-0.024384493	-0.94952151	0.41753575	-0.22575417	-0.79875615	0.44515774	0.060535615	-0.92673557	0.37841536	-0.11236149	-0.80189068	0.45784556	-0.068926244	-0.94263645	0.79458223	-0.23504823	-0.88321839	0.8504497	0.14047195	-0.87341959	0.90717981	-0.18667568	-0.83102888	0.93293098	0.052198551	-1.0507919	0.93962097	-0.03497354	-0.89995298	1.3986461	-0.20500511	-0.92079331	1.3906585	0.11800516	-0.99939778	1.4205176	-0.050619467	-0.92555355	1.0502607	-0.25986924	-1.030102	1.0609121	0.13996668	-0.70664734	0.93411353	-0.2891109	-0.96873008	0.83871989	0.21805247
